<svg width="1280" height="360" viewBox="0 0 1280 360" fill="none" xmlns="http://www.w3.org/2000/svg">
  <defs>
    <linearGradient id="bg" x1="0" y1="0" x2="1280" y2="360" gradientUnits="userSpaceOnUse">
      <stop offset="0" stop-color="#070A1A"/>
      <stop offset="0.45" stop-color="#11113A"/>
      <stop offset="1" stop-color="#2D145F"/>
    </linearGradient>
    <radialGradient id="glow" cx="0" cy="0" r="1" gradientUnits="userSpaceOnUse" gradientTransform="translate(1010 165) rotate(90) scale(260 360)">
      <stop offset="0" stop-color="#8B5CF6" stop-opacity="0.85"/>
      <stop offset="0.55" stop-color="#3B82F6" stop-opacity="0.25"/>
      <stop offset="1" stop-color="#000000" stop-opacity="0"/>
    </radialGradient>
    <filter id="softGlow" x="-50%" y="-50%" width="200%" height="200%">
      <feGaussianBlur stdDeviation="6" result="blur"/>
      <feMerge>
        <feMergeNode in="blur"/>
        <feMergeNode in="SourceGraphic"/>
      </feMerge>
    </filter>
  </defs>

  <rect width="1280" height="360" rx="28" fill="url(#bg)"/>
  <rect width="1280" height="360" rx="28" fill="url(#glow)"/>

  <g opacity="0.22">
    <path d="M0 285 C180 210 275 335 430 255 C560 188 665 290 795 205 C925 120 1060 230 1280 105" stroke="#A78BFA" stroke-width="2"/>
    <path d="M0 88 C170 150 260 50 425 120 C595 192 690 60 850 125 C1015 190 1120 80 1280 130" stroke="#38BDF8" stroke-width="2"/>
  </g>

  <g opacity="0.45" stroke="#6EE7F9" stroke-width="1.5">
    <line x1="835" y1="95" x2="930" y2="145"/>
    <line x1="930" y1="145" x2="1045" y2="100"/>
    <line x1="930" y1="145" x2="1080" y2="230"/>
    <line x1="835" y1="95" x2="780" y2="220"/>
    <line x1="780" y1="220" x2="930" y2="145"/>
    <line x1="780" y1="220" x2="1080" y2="230"/>
    <line x1="1045" y1="100" x2="1165" y2="165"/>
    <line x1="1165" y1="165" x2="1080" y2="230"/>
  </g>

  <g filter="url(#softGlow)">
    <circle cx="835" cy="95" r="8" fill="#A78BFA"/>
    <circle cx="930" cy="145" r="10" fill="#22D3EE"/>
    <circle cx="1045" cy="100" r="7" fill="#A78BFA"/>
    <circle cx="780" cy="220" r="8" fill="#38BDF8"/>
    <circle cx="1080" cy="230" r="10" fill="#C084FC"/>
    <circle cx="1165" cy="165" r="7" fill="#22D3EE"/>
  </g>

  <g opacity="0.16" fill="#FFFFFF">
    <circle cx="78" cy="58" r="2"/>
    <circle cx="158" cy="286" r="2"/>
    <circle cx="265" cy="78" r="1.5"/>
    <circle cx="420" cy="312" r="2"/>
    <circle cx="615" cy="52" r="1.5"/>
    <circle cx="735" cy="300" r="2"/>
    <circle cx="1210" cy="66" r="1.5"/>
  </g>

  <text x="76" y="98" fill="#A78BFA" font-family="Inter, Segoe UI, Arial, sans-serif" font-size="22" font-weight="700" letter-spacing="4">SATOSHI-QORE</text>
  <text x="76" y="170" fill="#FFFFFF" font-family="Inter, Segoe UI, Arial, sans-serif" font-size="56" font-weight="800">QoreChain Light Node</text>
  <text x="78" y="222" fill="#C7D2FE" font-family="Inter, Segoe UI, Arial, sans-serif" font-size="26" font-weight="500">Post-Quantum Blockchain Infrastructure • SX / UX • Web3</text>

  <g transform="translate(78 260)">
    <rect width="166" height="40" rx="20" fill="#1E1B4B" stroke="#8B5CF6"/>
    <text x="22" y="27" fill="#EDE9FE" font-family="Inter, Segoe UI, Arial, sans-serif" font-size="16" font-weight="700">Light Nodes</text>
  </g>
  <g transform="translate(260 260)">
    <rect width="202" height="40" rx="20" fill="#082F49" stroke="#38BDF8"/>
    <text x="22" y="27" fill="#E0F2FE" font-family="Inter, Segoe UI, Arial, sans-serif" font-size="16" font-weight="700">Community Fork</text>
  </g>
  <g transform="translate(478 260)">
    <rect width="184" height="40" rx="20" fill="#172554" stroke="#60A5FA"/>
    <text x="22" y="27" fill="#DBEAFE" font-family="Inter, Segoe UI, Arial, sans-serif" font-size="16" font-weight="700">PQC Ready</text>
  </g>

  <path d="M1130 285 L1198 246 L1198 168 L1130 129 L1062 168 L1062 246 Z" stroke="#A78BFA" stroke-width="3" opacity="0.65"/>
  <path d="M1130 154 L1176 181 L1176 233 L1130 260 L1084 233 L1084 181 Z" stroke="#22D3EE" stroke-width="2" opacity="0.65"/>
  <circle cx="1130" cy="207" r="24" stroke="#FFFFFF" stroke-width="2" opacity="0.55"/>
</svg>
